<svg xmlns="http://www.w3.org/2000/svg" viewBox="0 0 512 512"><circle cx="256" cy="256" r="256" fill="#4ab8a1"/><path d="M503.9 320.14L432 140c0-4.4-3.6-8-8-8h-4v-1.852c-1.296-.26-2.628-.536-4-.828V124c-20-4-47.816-12-92-12s-64 8-68 12c-.292-.296-.704-.616-1.172-.948-.124-.088-.272-.18-.416-.272a21.15 21.15 0 0 0-1.396-.832c-.156-.084-.3-.168-.472-.256-2.252-1.18-5.484-2.464-9.764-3.708a.646.646 0 0 1-.056-.012c-4.416-1.28-9.984-2.5-16.796-3.508C216.04 113 203.564 112 188 112c-44.184 0-72 8-92 12v8h-8c-4.4 0-8 3.6-8 8v236l39.116 96.28C158.72 497.4 205.636 512 256 512c119.244 0 219.428-81.516 247.9-191.86z" fill="#43a691"/><path d="M424 132H88c-4.4 0-8 3.6-8 8v232c0 4.4 3.6 8 8 8h140c0 8.836 12.54 16 28 16s28-7.164 28-16h140c4.4 0 8-3.6 8-8V140c0-4.4-3.6-8-8-8z" fill="#cc584c"/><path fill="#bf5347" d="M264 132h160v236H264z"/><path d="M424 372H284c0 8.836-12.54 16-28 16s-28-7.164-28-16H88c-4.4 0-8-3.6-8-8v8c0 4.4 3.6 8 8 8h140c0 8.836 12.54 16 28 16s28-7.164 28-16h140c4.4 0 8-3.6 8-8v-8c0 4.4-3.6 8-8 8z" fill="#994239"/><path d="M188 112c-44.184 0-72 8-92 12v240h160V124c-4-4-23.816-12-68-12z" fill="#fff8e6"/><path d="M256 364c0-11.044-23.816-20-68-20s-84 12-92 20h160z" fill="#e6dbc3"/><path d="M324 112c44.184 0 72 8 92 12v240H256V124c4-4 23.816-12 68-12z" fill="#fff8e6"/><path d="M256 364c0-11.044 23.816-20 68-20s84 12 92 20H256z" fill="#e6dbc3"/><path d="M256 340V124c-2.584-2.592-11.884-6.852-30.072-9.536L256 340z" fill="#f2e7ce"/><path fill="#bf5347" d="M100 364h164v4H100z"/><path d="M400 164H272v-28c46.728-7.228 81.272-7.232 128 0v28zm-108 20h108v8H292zm-20 16h128v8H272zm0 16h128v8H272zm0 16h128v8H272zm0 16h128v8H272zm0 16h128v8H272zm0 16h128v8H272zm0 16h128v8H272zm0 16h108v8H272zM136 140h108v8H136zm-20 16h128v8H116zm0 16h128v8H116zm0 16h128v8H116zm0 16h128v8H116zm0 16h128v8H116zm0 16h128v8H116zm0 16h128v8H116zm0 16h108v8H116z" fill="#f2e7ce"/></svg>