<svg xmlns="http://www.w3.org/2000/svg" viewBox="0 0 512 512"><path d="M256 0C114.616 0 0 114.616 0 256s114.616 256 256 256 256-114.616 256-256S397.384 0 256 0z" fill="#88c5cc"/><path d="M256 0C114.616 0 0 114.616 0 256s114.616 256 256 256 256-114.616 256-256S397.384 0 256 0z" fill="#2d4452"/><path d="M256 512c141.384 0 256-114.616 256-256 0-35.484-7.228-69.276-20.276-100H164c-8.8 0-16 7.2-16 16v316.1c32.824 15.308 69.4 23.9 108 23.9z" fill="#fff1cc"/><path d="M457.412 381.244l-48.424-48.424c.968-.696 1.948-1.332 2.928-1.852 8.36-4.432 11.792-15.012 7.636-23.512-4.152-8.5-4.152-22.408 0-30.908 4.156-8.5.724-19.08-7.636-23.512-8.356-4.432-16.528-15.684-18.16-25-1.636-9.316-10.636-15.856-20-14.532-9.368 1.328-22.588-2.972-29.392-9.548-6.8-6.584-17.92-6.584-24.728 0-6.796 6.576-20.024 10.872-29.388 9.548-9.368-1.324-18.368 5.216-20 14.532-1.636 9.316-9.808 20.568-18.164 25-8.36 4.432-11.792 15.012-7.636 23.512 4.152 8.5 4.152 22.408 0 30.908-4.156 8.5-.724 19.08 7.636 23.512.98.52 1.96 1.156 2.928 1.852l-48.424 48.424c-3.112 3.112-2.252 6.796 1.928 8.188l35.736 11.916c4.176 1.392 8.728 5.944 10.116 10.12l11.916 35.732c1.392 4.176 5.076 5.048 8.188 1.932L332 391.592l57.528 57.532c3.112 3.108 6.796 2.244 8.188-1.932l11.916-35.732c1.396-4.18 5.94-8.728 10.116-10.12l35.736-11.912c4.172-1.392 5.04-5.076 1.928-8.184z" fill="#ccc1a3"/><g fill="#263740"><path d="M441.412 373.244c3.112 3.112 2.252 6.796-1.928 8.188l-35.736 11.916c-4.176 1.392-8.728 5.944-10.116 10.12L381.716 439.2c-1.392 4.176-5.076 5.048-8.188 1.932l-79.196-79.2c-3.108-3.108-3.108-8.204 0-11.308l56.572-56.568c3.108-3.116 8.208-3.116 11.312 0l79.196 79.188z"/><path d="M190.588 373.244c-3.112 3.112-2.252 6.796 1.928 8.188l35.736 11.916c4.176 1.392 8.728 5.944 10.116 10.12l11.916 35.732c1.392 4.176 5.076 5.048 8.188 1.932l79.196-79.2c3.108-3.108 3.108-8.204 0-11.308l-56.572-56.568c-3.108-3.116-8.208-3.116-11.312 0l-79.196 79.188z"/></g><path d="M303.636 195.96c6.8-6.584 17.92-6.584 24.728 0 6.796 6.576 20.024 10.872 29.388 9.548 9.368-1.324 18.368 5.216 20 14.532 1.636 9.316 9.808 20.568 18.164 25 8.36 4.432 11.792 15.016 7.636 23.516-4.152 8.5-4.152 22.404 0 30.904 4.156 8.5.724 19.08-7.636 23.512-8.356 4.428-16.528 15.684-18.164 25-1.632 9.312-10.632 15.856-20 14.532-9.364-1.328-22.584 2.972-29.388 9.548-6.8 6.584-17.92 6.584-24.728 0-6.796-6.576-20.024-10.872-29.388-9.548-9.368 1.324-18.368-5.22-20-14.532-1.636-9.316-9.808-20.572-18.164-25-8.36-4.432-11.792-15.012-7.636-23.512 4.152-8.5 4.152-22.404 0-30.904-4.156-8.5-.724-19.084 7.636-23.516 8.356-4.432 16.528-15.684 18.164-25 1.632-9.316 10.632-15.856 20-14.532 9.364 1.324 22.592-2.972 29.388-9.548z" fill="#cc584c"/><circle cx="316" cy="284" r="60" fill="#f2cf61"/></svg>