<svg xmlns="http://www.w3.org/2000/svg" viewBox="0 0 512 512"><circle cx="256" cy="256" r="256" fill="#88c5cc"/><path d="M456 225.936c0-.644-2.54-1.788-4.884-2.252L268.388 200.16c-6.724-1.312-17.812-1.452-24.536-.14l-182.94 23.184c-2.292.452-4.912 1.024-4.912 1.752V236l104.38 257.468C189.928 505.384 222.184 512 256 512c114.376 0 211.2-75.02 244.036-178.524L456 225.936z" fill="#80b9bf"/><path d="M128 220v112c4.388 24 60.34 43.6 128 43.6S378.996 356 383.384 332H384V220H128z" fill="#2d424d"/><path d="M372 220v112c-4.252 24-57.428 42.116-122.228 43.256 2.064.032 4.14.2 6.228.2 67.66 0 123.608-19.456 128-43.456V220h-12z" fill="#253740"/><path d="M448 224v5.036L267.676 206.12c-6.724-1.308-16.464-1.308-23.184 0L68 228.42V228H56v5.532c0 .772 2.364 1.556 4.432 2.26l149.352 44.876c6.484 2.224 17.316 2.7 23.968 1.068l217.452-47.008c2.276-.564 4.792-1.212 4.792-1.88V228L448 224z" fill="#1e2c33"/><path d="M456 224.832c0-.644-2.54-1.24-4.884-1.696l-182.728-23.252c-6.724-1.312-17.812-1.312-24.536 0l-182.94 23.252c-2.292.448-4.912 1.092-4.912 1.816V228c0 .772 2.364.856 4.432 1.564l149.352 44.876c6.484 2.224 17.316 2.704 23.968 1.072 0 0 222.244-46.84 222.244-47.504l.004-3.176z" fill="#2d424d"/><path d="M314 381.252c-3.436 0-6-2.784-6-6.228V264.272l-70.012-23.492c-3.264-1.088-4.792-4.616-3.704-7.884s4.744-5.036 7.996-3.936l74.104 24.916c2.548.852 7.616 3.44 7.616 6.12v116c0 3.44-6.564 5.256-10 5.256z" fill="#ffd464"/><path d="M332 388v-12.976c0-8.6-7.4-15.58-16-15.58s-16 6.976-16 15.58V388h32z" fill="#e16b5a"/><path fill="#ffd464" d="M300 388h32v36h-32z"/><path d="M304 388h4v36h-4zm8 0h4v36h-4zm8 0h4v36h-4z" fill="#ffe399"/></svg>